{"accessors":[{"name":"圆柱-Mesh_0_positions","componentType":5126,"count":230,"min":[-35.328609466552734,3.600130319595337,-32.62409210205078],"max":[31.036745071411133,96.60012817382812,33.65524673461914],"type":"VEC3","bufferView":0,"byteOffset":0},{"name":"圆柱-Mesh_0_normals","componentType":5126,"count":230,"min":[-0.9981067180633545,0.00008349116251338273,-0.9996492266654968],"max":[0.9999657869338989,0.0021766081918030977,0.999068021774292],"type":"VEC3","bufferView":1,"byteOffset":0},{"name":"圆柱-Mesh_0_texcoords","componentType":5126,"count":230,"min":[0,0],"max":[1,1],"type":"VEC2","bufferView":2,"byteOffset":0},{"name":"圆柱-Mesh_0_indices","componentType":5123,"count":1080,"min":[0],"max":[229],"type":"SCALAR","bufferView":3,"byteOffset":0},{"name":"瓶盖-Mesh_0_positions","componentType":5126,"count":1601,"min":[-18.691667556762695,135.8430633544922,-15.667730331420898],"max":[13.96589469909668,152.35455322265625,16.989830017089844],"type":"VEC3","bufferView":0,"byteOffset":2760},{"name":"瓶盖-Mesh_0_normals","componentType":5126,"count":1601,"min":[-0.9996810555458069,-1,-0.9996811151504517],"max":[0.9996810555458069,1,0.9996810555458069],"type":"VEC3","bufferView":1,"byteOffset":2760},{"name":"瓶盖-Mesh_0_texcoords","componentType":5126,"count":1601,"min":[0.058450810611248016,0.1834508180618286],"max":[0.939292311668396,0.8165491819381714],"type":"VEC2","bufferView":2,"byteOffset":1840},{"name":"瓶盖-Mesh_0_indices","componentType":5123,"count":5838,"min":[0],"max":[1600],"type":"SCALAR","bufferView":3,"byteOffset":2160},{"name":"Default-Mesh_0_positions","componentType":5126,"count":48237,"min":[-35.23925018310547,0.009179409593343735,-32.47202682495117],"max":[30.777921676635742,151,33.52680969238281],"type":"VEC3","bufferView":0,"byteOffset":21972},{"name":"Default-Mesh_0_normals","componentType":5126,"count":48237,"min":[-0.9999999403953552,-1,-0.9999996423721313],"max":[0.9999999403953552,1,0.9999971389770508],"type":"VEC3","bufferView":1,"byteOffset":21972},{"name":"Default-Mesh_0_texcoords","componentType":5126,"count":48237,"min":[0,0.00146484375],"max":[0.9329167008399963,1],"type":"VEC2","bufferView":2,"byteOffset":14648},{"name":"Default-Mesh_0_indices","componentType":5123,"count":204300,"min":[0],"max":[48236],"type":"SCALAR","bufferView":3,"byteOffset":13836}],"asset":{"generator":"obj2gltf","version":"2.0"},"buffers":[{"name":"suntory_4","byteLength":2754196,"uri":"data:application/octet-stream;base64,"}],"bufferViews":[{"name":"bufferView_0","buffer":0,"byteLength":600816,"byteOffset":0,"byteStride":12,"target":34962},{"name":"bufferView_1","buffer":0,"byteLength":600816,"byteOffset":600816,"byteStride":12,"target":34962},{"name":"bufferView_2","buffer":0,"byteLength":400544,"byteOffset":1201632,"byteStride":8,"target":34962},{"name":"bufferView_3","buffer":0,"byteLength":422436,"byteOffset":1602176,"target":34963},{"buffer":0,"byteOffset":2024612,"byteLength":729584}],"images":[{"name":"uv10","mimeType":"image/png","bufferView":4}],"materials":[{"name":"材质.2","pbrMetallicRoughness":{"baseColorTexture":{"index":0},"baseColorFactor":[1,1,1,1],"metallicFactor":0,"roughnessFactor":0.95},"emissiveFactor":[0,0,0],"alphaMode":"OPAQUE","doubleSided":false},{"name":"材质","pbrMetallicRoughness":{"baseColorFactor":[0.80000001192093,0.80000001192093,0.80000001192093,1],"metallicFactor":0,"roughnessFactor":0.95},"emissiveFactor":[0,0,0],"alphaMode":"OPAQUE","doubleSided":false},{"name":"材质.1","pbrMetallicRoughness":{"baseColorFactor":[0.8299999833107,0.81644332408905,0.71380001306534,1],"metallicFactor":0,"roughnessFactor":0.95},"emissiveFactor":[0,0,0],"alphaMode":"OPAQUE","doubleSided":false}],"meshes":[{"name":"圆柱-Mesh","primitives":[{"attributes":{"POSITION":0,"NORMAL":1,"TEXCOORD_0":2},"indices":3,"material":0,"mode":4}]},{"name":"瓶盖-Mesh","primitives":[{"attributes":{"POSITION":4,"NORMAL":5,"TEXCOORD_0":6},"indices":7,"material":1,"mode":4}]},{"name":"Default-Mesh","primitives":[{"attributes":{"POSITION":8,"NORMAL":9,"TEXCOORD_0":10},"indices":11,"material":2,"mode":4}]}],"nodes":[{"name":"圆柱","mesh":0},{"name":"瓶盖","mesh":1},{"name":"Default","mesh":2}],"samplers":[{"wrapS":10497,"wrapT":10497}],"scene":0,"scenes":[{"nodes":[0,1,2]}],"textures":[{"name":"uv10","sampler":0,"source":0}]}